<svg xmlns="http://www.w3.org/2000/svg" width="425.2" height="318.9"><defs><clipPath clipPathUnits="userSpaceOnUse" id="a"><path d="M0 255.12h340.16V0H0v255.12z"/></clipPath></defs><path d="M89.36 273.726H49.834V46.234h39.45v8.75h-30.7v209.992H89.36v8.75zm304.794 0H354.63v-8.75h30.774V54.984h-30.697v-8.75h39.447v227.492z" fill="#feffff"/><g clip-path="url(#a)" transform="matrix(1.25 0 0 -1.25 0 318.9)" fill="#fff"><path d="M156.383 206.586l-1.304.451c-6.852-5.996-11.136-13.522-13.472-23.042 4.636.726 8.596 1.206 12.474 2.058.91.2 2.171 1.64 2.2 2.543.197 5.991.102 11.992.102 17.99m55.892-21.479c-2.148 7.88-5.675 15.23-13.348 21.621 0-3.053.033-4.888-.007-6.72-.108-4.97-2.273-7.462-6.42-7.44-3.98.021-6.358 2.723-6.479 7.582-.097 3.897-.028 7.8-.028 11.7-.003 10.673-.199 10.777-10.969 10.453-3.619-.109-5.456-1.757-5.492-5.206-.09-8.81-.126-17.624.114-26.428.03-1.099 1.795-3.009 2.864-3.089 13.043-.97 26.107-1.669 39.765-2.473m-34.297-9.923c-8.924-.857-16.842-1.45-24.695-2.522-1.45-.198-3.51-2.15-3.808-3.597-2.608-12.68-.954-24.796 6.318-35.707 11.58-17.375 32.425-18.1 45.02-1.498 8.265 10.894 10.174 23.401 7.632 36.604-.273 1.421-2.407 3.317-3.89 3.533-9.122 1.33-18.305 2.24-26.577 3.187m-42.502-9.915c-4.016-3.125-7.429-4.14-10.716-.654-2.413 2.56-1.878 7.048.741 10.777 1.09 1.553 1.907 3.502 2.207 5.373 1.994 12.462 6.865 23.53 15.44 32.872.973 1.061 2.008 2.143 3.212 2.901 5.868 3.7 11.053 7.623 15.516 13.475 7.418 9.73 29.374 6.78 34.725-3.862 1.688-3.357 3.93-5.247 7.024-7.045 8.187-4.756 13.502-12.21 17.077-20.75 2.212-5.285 3.397-10.996 5.165-16.476.735-2.279 1.457-4.673 2.756-6.638 4.06-6.143 2.732-10.407-4.143-12.967-.893-.332-1.966-1.762-1.962-2.68.05-13.477-3.705-25.644-11.884-36.438-.668-.88-.777-2.45-.634-3.637.675-5.592 1.665-11.149 2.263-16.747.322-3.01 1.796-3.954 4.621-4.523 6.49-1.307 13.175-2.368 19.26-4.82 22.717-9.16 31.582-27.66 32.054-49.476.096-4.425-2.51-7.249-6.256-7.38-3.734-.13-6.079 2.641-6.663 7.011-.762 5.702-1.172 11.623-3.084 16.966-5.422 15.152-17.823 21.667-32.694 24.44-3.67.684-7.464.761-11.209.978-4.685.27-6.828 2.065-7.558 6.703-.963 6.123-1.87 12.254-2.756 18.075-6.532-1.326-12.796-3.587-19.06-3.59-6.164-.002-12.328 2.287-19.137 3.706-.705-4.2-1.565-9.098-2.3-14.014-.09-.599.338-1.42.772-1.932 7.471-8.806 14.982-17.58 22.88-26.823 2.574 2.71 4.794 5.094 7.067 7.425 3.677 3.771 7.184 4.252 10.263 1.464 2.941-2.663 2.637-6.353-.924-10.253-3.707-4.059-7.394-8.139-11.224-12.08-3.77-3.88-7.674-3.757-11.138.29-8.558 10-17.132 19.986-25.53 30.12-2.078 2.506-4.04 3.36-7.384 2.821-20.919-3.375-34.535-15.063-38.476-33.6-.687-3.235-.953-6.579-1.172-9.888-.339-5.125-2.649-7.962-6.68-7.848-3.865.11-6.394 3-6.3 7.807.44 22.768 10.57 41.516 33.002 51.004 5.797 2.452 12.095 3.848 18.277 5.206 3.062.673 4.551 1.934 4.86 4.951.236 2.297.497 4.622 1.081 6.847 1.585 6.041.647 11.077-3.193 16.457-5.717 8.008-7.978 17.554-8.178 27.462-.055 2.732-.008 5.466-.008 8.99"/></g></svg>