<svg xmlns="http://www.w3.org/2000/svg" width="579.941" height="287.296"><defs><clipPath clipPathUnits="userSpaceOnUse" id="a"><path d="M0 229.837h463.953V0H0v229.837z"/></clipPath><clipPath clipPathUnits="userSpaceOnUse" id="b"><path d="M18.416 115.347c0-54.809 44.43-99.239 99.238-99.239s99.238 44.43 99.238 99.239c0 54.807-44.43 99.237-99.238 99.237s-99.238-44.43-99.238-99.237"/></clipPath><clipPath clipPathUnits="userSpaceOnUse" id="c"><path d="M0 229.837h463.953V0H0v229.837z"/></clipPath></defs><path d="M286.928 166.947v-34.92h11.295l8.373 26.546 8.62-26.546h11.051v34.92h-6.68v-29.099l-9.896 29.099h-6.581l-9.675-29.099v29.099h-6.508zm46.975-34.92H341v34.92h-7.097v-34.92zm14.317 34.92v-34.92h8.496l13.802 26.767v-26.767h6.335v34.92h-8.547l-13.8-26.766v26.766h-6.286zm36.663 0v-34.748h20.651v5.82h-13.555v8.276h12.401v5.697h-12.4v9.135h13.678v5.82h-20.774z" fill="#006b48"/><g clip-path="url(#a)" transform="matrix(1.25 0 0 -1.25 0 287.296)"><path d="M335.704 119.834v-7.583h2.476c1.794 0 3.106.38 3.938 1.14.831.758 1.247 1.734 1.247 2.926 0 1.022-.37 1.864-1.109 2.525-.74.661-1.837.992-3.29.992h-3.262zm-5.678 4.381h7.956c2.292 0 3.812-.039 4.558-.118 1.113-.13 2.037-.373 2.77-.727.734-.353 1.408-.858 2.024-1.513a6.764 6.764 0 0 0 1.404-2.25 7.536 7.536 0 0 0 .482-2.7c0-1.088-.187-2.04-.56-2.859-.373-.818-.819-1.486-1.336-2.003a6.13 6.13 0 0 0-1.64-1.199c-.577-.282-1.297-.494-2.162-.638.498-.026 1.002-.266 1.513-.718.511-.45.956-1.116 1.336-1.993l.648-1.493 4.008-9.725h-6.286l-3.025 7.878c-.355.916-.616 1.532-.786 1.847-.289.55-.574.956-.855 1.218a2.401 2.401 0 0 1-.933.55c-.524.144-1.27.215-2.24.215-.34 0-.74-.019-1.198-.058V96.28h-5.678v27.936zm32.63-17.032h8.113l-4.047 11.453-4.066-11.453zm-9.96-10.903l10.981 27.935h6.346l11.041-27.935h-6.247l-2.338 6.384h-11.532l-2.377-6.384h-5.874zm-117.64-11.631V65.938c.482-.051.959-.076 1.43-.076 1.488 0 2.86.159 4.119.477.928.229 1.73.553 2.404.973.674.419 1.322 1.004 1.945 1.754s1.12 1.666 1.487 2.747c.369 1.08.554 2.25.554 3.51 0 1.207-.166 2.323-.496 3.347a8.797 8.797 0 0 1-1.468 2.765c-.65.82-1.373 1.456-2.174 1.907-.803.452-1.772.786-2.91 1.002-1.137.216-2.768.318-4.891.305m-5.475-22.964v27.122h6.2c2.834 0 5.086-.143 6.752-.43 1.664-.286 3.113-.772 4.347-1.458a10.988 10.988 0 0 0 3.242-2.766 11.044 11.044 0 0 0 2.004-3.805c.407-1.38.61-2.966.61-4.76 0-1.868-.217-3.556-.65-5.062-.43-1.507-1.087-2.84-1.964-3.996-.877-1.157-1.875-2.073-2.994-2.747-1.12-.674-2.67-1.221-4.654-1.64-1.398-.306-3.242-.458-5.531-.458h-7.362zm31.604 12.073h8.812c-.077 1.666-.503 2.911-1.279 3.738-.775.826-1.805 1.241-3.09 1.241-1.194 0-2.13-.364-2.802-1.088-.953-.992-1.5-2.288-1.64-3.89m13.656-3.625h-13.618a5.004 5.004 0 0 1 .829-2.546c.516-.795 1.18-1.39 1.993-1.783.814-.395 1.813-.592 2.995-.592 1.068 0 2.124.15 3.166.448 1.042.3 2.149.78 3.319 1.441l.057-4.292c-.458-.343-1.371-.694-2.737-1.049a16.615 16.615 0 0 0-4.206-.534c-2.136 0-3.995.397-5.578 1.192-1.583.795-2.795 2.02-3.634 3.672-.84 1.652-1.26 3.56-1.26 5.722 0 2.135.405 4.024 1.212 5.664.808 1.64 1.98 2.877 3.52 3.71 1.538.833 3.235 1.25 5.092 1.25 1.984 0 3.68-.493 5.092-1.479 1.412-.985 2.4-2.324 2.966-4.014.566-1.692.849-3.606.849-5.742 0-.242-.02-.597-.057-1.068m4.367 20.847h5.245V61.685h-5.245v29.296zm27.084-6.332v-8.45c.572-.012.953-.02 1.145-.02 1.334 0 2.351.11 3.051.325.432.154.874.392 1.325.716.452.325.821.75 1.107 1.278.286.528.429 1.198.429 2.012 0 1.246-.461 2.26-1.383 3.042-.922.783-2.406 1.173-4.453 1.173-.344 0-.751-.025-1.221-.076m-5.513-22.964v27.122h5.971c2.326 0 3.858-.045 4.596-.134 1.309-.177 2.403-.476 3.281-.896a7.726 7.726 0 0 0 2.336-1.726 7.592 7.592 0 0 0 1.555-2.508 8.576 8.576 0 0 0 .534-3.052c0-1.221-.217-2.333-.649-3.338a8.612 8.612 0 0 0-1.707-2.603c-.706-.731-1.485-1.285-2.337-1.66-.851-.375-1.856-.651-3.013-.83-.7-.101-1.615-.14-2.746-.113l-2.308.038v-10.3h-5.513zm24.815 12.073h8.812c-.077 1.666-.503 2.911-1.28 3.738-.774.826-1.804 1.241-3.09 1.241-1.194 0-2.13-.364-2.802-1.088-.953-.992-1.5-2.288-1.64-3.89m13.656-3.625h-13.618a5.004 5.004 0 0 1 .829-2.546c.516-.795 1.18-1.39 1.993-1.783.814-.395 1.813-.592 2.995-.592 1.068 0 2.124.15 3.166.448 1.042.3 2.149.78 3.319 1.441l.057-4.292c-.458-.343-1.371-.694-2.737-1.049a16.615 16.615 0 0 0-4.206-.534c-2.136 0-3.995.397-5.578 1.192-1.583.795-2.795 2.02-3.634 3.672-.84 1.652-1.26 3.56-1.26 5.722 0 2.135.405 4.024 1.212 5.664.808 1.64 1.98 2.877 3.52 3.71 1.538.833 3.235 1.25 5.092 1.25 1.984 0 3.68-.493 5.092-1.479 1.412-.985 2.4-2.324 2.966-4.014.566-1.692.849-3.606.849-5.742 0-.242-.02-.597-.057-1.068m4.101 11.673h4.787l.096-5.111c.343 1.627 1.049 2.915 2.116 3.862 1.068.947 2.282 1.42 3.644 1.42.496 0 .972-.044 1.43-.133v-4.921c-.394.216-.928.324-1.602.324-.942 0-1.733-.184-2.375-.552a4.634 4.634 0 0 1-1.574-1.48 6.024 6.024 0 0 1-.858-2.088c-.165-.775-.248-1.83-.248-3.166v-8.277h-5.245v14.018l-.133 5.55-.038.554zm30.191 8.449l-5.512-5.646h-3.07l3.261 5.646h5.321zm-14.819-8.449h5.245v-9.9l.038-1.773c.038-1.386.266-2.39.686-3.014.662-.966 1.609-1.449 2.842-1.449.725 0 1.38.181 1.965.544a3.998 3.998 0 0 1 1.401 1.478c.35.623.608 1.436.773 2.441.076.471.115 1.271.115 2.403v9.27h5.245V69.505l.133-6.638.134-1.182h-5.055l-.133 3.07c-.598-1.004-1.46-1.814-2.585-2.432-1.125-.616-2.431-.924-3.919-.924-1.055 0-2.003.15-2.842.448-.839.3-1.523.69-2.05 1.173-.528.483-.929 1.01-1.202 1.583-.274.572-.487 1.436-.639 2.593-.102.776-.152 2.251-.152 4.426v10.185zm57.73 87.257l-5.637-5.773h-3.14l3.336 5.773h5.441zm-186.789-8.011h5.372v-28.057h-5.372v28.057zm8.872 0h5.671l11.94-20.595v20.595h5.073v-28.057h-5.67l-11.641 20.297v-20.297h-5.372v28.057z" fill="#006b48"/><path d="M255.942 161.053h5.67l11.94-20.595v20.595h5.074v-28.057h-5.671l-11.641 20.297v-20.297h-5.372v28.057zm30.505-14.625c.087-2.027.6-3.715 1.539-5.064.939-1.35 2.08-2.336 3.423-2.957 1.344-.622 2.674-.933 3.993-.933a8.52 8.52 0 0 1 3.58.793 10.203 10.203 0 0 1 3.098 2.192 10.6 10.6 0 0 1 2.118 3.097 8.46 8.46 0 0 1 .755 3.469 9.382 9.382 0 0 1-1.073 4.356c-.715 1.387-1.753 2.528-3.115 3.423-1.362.896-2.951 1.387-4.767 1.474-1.143 0-2.254-.162-3.33-.485a8.624 8.624 0 0 1-2.975-1.595c-.908-.74-1.657-1.76-2.248-3.06-.591-1.3-.923-2.87-.998-4.71m-5.372 0c.074 2.686.59 5.003 1.548 6.949.957 1.947 2.17 3.498 3.638 4.655 1.467 1.156 3.056 1.999 4.766 2.527 1.709.529 3.367.793 4.97.793 2.177 0 4.183-.435 6.018-1.306 1.834-.87 3.404-2.018 4.71-3.441 1.306-1.425 2.297-2.948 2.975-4.571.678-1.623 1.017-3.18 1.017-4.673a8.74 8.74 0 0 0-.093-1.231 19.825 19.825 0 0 0-1.128-4.636c-.58-1.561-1.447-3.032-2.603-4.412-1.157-1.38-2.69-2.506-4.598-3.376-1.91-.871-4.207-1.306-6.893-1.306-2.463 0-4.618.491-6.465 1.472-1.846.983-3.336 2.208-4.467 3.676-1.132 1.467-1.981 3.006-2.546 4.617-.567 1.61-.85 3.031-.85 4.262m40.214-13.431l-11.342 28.057h5.67l7.76-21.49 7.762 21.49h5.074l-10.745-28.057h-4.18zm24.5 28.057l11.342-28.057h-5.67l-7.76 21.491-7.762-21.49h-5.074l10.745 28.056h4.18zm11.155-13.431c.075 1.181.439 2.558 1.092 4.132.652 1.573 1.579 3.093 2.779 4.56 1.2 1.468 2.674 2.674 4.422 3.62 1.746.945 3.714 1.418 5.904 1.418h.429c1.653 0 3.385-.355 5.195-1.064a15.747 15.747 0 0 0 4.897-3.05c1.455-1.324 2.469-2.839 3.04-4.542h-5.97c-1.094 1.194-2.247 2.077-3.46 2.65-1.212.571-2.453.857-3.721.857-1.592 0-3.106-.438-4.543-1.315a9.967 9.967 0 0 1-3.422-3.442c-.846-1.418-1.27-2.892-1.27-4.42 0-1.743.505-3.35 1.512-4.823a10.833 10.833 0 0 1 3.87-3.48c1.574-.846 3.156-1.268 4.748-1.268 1.182 0 2.26.242 3.237.728.976.484 1.794 1.243 2.453 2.275h6.268c-.684-1.865-1.775-3.41-3.273-4.635-1.5-1.226-3.13-2.109-4.888-2.649-1.76-.54-3.356-.812-4.785-.812-.2 0-.461.013-.783.037a15.95 15.95 0 0 0-5.336 1.362 14.13 14.13 0 0 0-4.375 3.051c-1.237 1.273-2.217 2.831-2.938 4.672-.721 1.84-1.082 3.886-1.082 6.138m29.168 13.431h5.372v-28.057h-5.372v28.057zm13.053-14.625c.087-2.027.6-3.715 1.539-5.064.939-1.35 2.08-2.336 3.423-2.957 1.344-.622 2.674-.933 3.993-.933a8.52 8.52 0 0 1 3.58.793 10.203 10.203 0 0 1 3.098 2.192 10.6 10.6 0 0 1 2.118 3.097 8.46 8.46 0 0 1 .755 3.469 9.382 9.382 0 0 1-1.073 4.356c-.715 1.387-1.754 2.528-3.115 3.423-1.362.896-2.951 1.387-4.767 1.474-1.143 0-2.254-.162-3.33-.485a8.624 8.624 0 0 1-2.975-1.595c-.908-.74-1.657-1.76-2.248-3.06-.591-1.3-.923-2.87-.998-4.71m-5.372 0c.074 2.686.59 5.003 1.548 6.949.957 1.947 2.17 3.498 3.638 4.655 1.467 1.156 3.056 1.999 4.766 2.527 1.709.529 3.367.793 4.97.793 2.177 0 4.183-.435 6.018-1.306 1.834-.87 3.404-2.018 4.71-3.441 1.306-1.425 2.297-2.948 2.975-4.571.678-1.623 1.017-3.18 1.017-4.673a8.74 8.74 0 0 0-.093-1.231 19.825 19.825 0 0 0-1.128-4.636c-.58-1.561-1.447-3.032-2.603-4.412-1.157-1.38-2.69-2.506-4.598-3.376-1.91-.871-4.207-1.306-6.893-1.306-2.463 0-4.618.491-6.465 1.472-1.846.983-3.336 2.208-4.467 3.676-1.132 1.467-1.981 3.006-2.546 4.617-.567 1.61-.85 3.031-.85 4.262m31.259 14.626h5.671l11.94-20.595v20.595h5.073v-28.057h-5.671l-11.641 20.297v-20.297h-5.372v28.057z" fill="#006b48"/><path d="M216.892 115.346c0-54.808-44.43-99.238-99.238-99.238s-99.238 44.43-99.238 99.238 44.43 99.238 99.238 99.238 99.238-44.43 99.238-99.238" fill="#f7b400"/></g><g clip-path="url(#b)" transform="matrix(1.25 0 0 -1.25 0 287.296)"><path d="M50.566 167.278c16.589 2.828 41.848-1.679 49.414-2.128a1082.959 1082.959 0 0 0 76.08-7.214c6.413-.837 14.967-.362 20.47-4.184 7.109-4.925 5.408-15.304 3.353-22.24-2.911-10.863-4.61-22.118-6.777-33.147-2.148-10.929-2.005-22.279-5.715-32.902-2.67-7.646-8.373-11.828-16.006-13.799-5.806-1.5-8.711.381-7.387-5.484 1.289-5.71 3.775-13.894 5.049-23.454-10.944 8.755-19.31 21.804-32.814 26.713-12.6 4.58-26.563 3.442-39.597 1.771-15.803-2.025-35.89.497-40.426 18.721l-15.484 62.217c-3.561 14.306-10.31 31.695 9.84 35.13" fill="#fff"/></g><g clip-path="url(#c)" transform="matrix(1.25 0 0 -1.25 0 287.296)"><path d="M94.69 114.823c3.68-3.954 5.52-8.566 5.52-13.837V78.252h-8.731v22.734c0 2.965-.934 5.408-2.801 7.33-1.977 2.087-4.311 3.13-7.001 3.13-2.8 0-5.134-.988-7.002-2.965-1.921-2.087-2.882-4.585-2.882-7.495V78.252h-8.65v62.105h8.65v-22.898c2.91 1.977 6.205 2.965 9.884 2.965 5.052 0 9.389-1.867 13.014-5.601m40.441-31.629c-1.812-2.086-3.857-3.583-6.136-4.49-2.279-.905-4.572-1.358-6.878-1.358-5.272 0-9.61 1.894-13.014 5.683-3.679 3.899-5.519 8.649-5.519 14.25v22.239h8.65v-22.24c0-3.074.96-5.6 2.882-7.577 1.922-2.087 4.255-3.13 7.001-3.13 2.691 0 5.024 1.043 7.001 3.13 1.922 1.977 2.855 4.503 2.801 7.578v22.239h8.731v-22.24c0-5.49-1.84-10.185-5.519-14.084m39.125 24.71c-2.416 2.526-5.327 3.789-8.73 3.789-3.35 0-6.206-1.263-8.567-3.79-2.416-2.415-3.652-5.435-3.707-9.06 0-3.513 1.236-6.48 3.707-8.895 2.361-2.525 5.216-3.79 8.566-3.79 3.404 0 6.315 1.265 8.731 3.79 2.416 2.416 3.597 5.382 3.542 8.896.055 3.514-1.126 6.534-3.542 9.06m-21.004-26.44v-3.212h-8.648v62.105h8.648v-24.134c3.515 2.8 7.606 4.2 12.273 4.2 5.711 0 10.626-2.085 14.744-6.26 4.063-4.172 6.095-9.28 6.095-15.32 0-6.04-2.032-11.12-6.095-15.237-4.118-4.173-9.033-6.26-14.744-6.26-4.667 0-8.758 1.373-12.273 4.119" fill="#f7b400"/></g></svg>