<?xml version="1.0" encoding="UTF-8" standalone="no"?>
<!-- Created with Inkscape (http://www.inkscape.org/) -->

<svg
   xmlns:dc="http://purl.org/dc/elements/1.1/"
   xmlns:cc="http://creativecommons.org/ns#"
   xmlns:rdf="http://www.w3.org/1999/02/22-rdf-syntax-ns#"
   xmlns:svg="http://www.w3.org/2000/svg"
   xmlns="http://www.w3.org/2000/svg"
   xmlns:sodipodi="http://sodipodi.sourceforge.net/DTD/sodipodi-0.dtd"
   xmlns:inkscape="http://www.inkscape.org/namespaces/inkscape"
   id="svg2"
   version="1.1"
   inkscape:version="0.91 r13725"
   xml:space="preserve"
   width="425.20001"
   height="318.89999"
   viewBox="0 0 425.20001 318.89999"
   sodipodi:docname="icon-minero2.svg"><metadata
     id="metadata8"><rdf:RDF><cc:Work
         rdf:about=""><dc:format>image/svg+xml</dc:format><dc:type
           rdf:resource="http://purl.org/dc/dcmitype/StillImage" /><dc:title /></cc:Work></rdf:RDF></metadata><defs
     id="defs6"><clipPath
       clipPathUnits="userSpaceOnUse"
       id="clipPath24"><path
         d="m 0,255.12 340.16,0 L 340.16,0 0,0 0,255.12 Z"
         id="path26"
         inkscape:connector-curvature="0" /></clipPath></defs><sodipodi:namedview
     pagecolor="#ffffff"
     bordercolor="#666666"
     borderopacity="1"
     objecttolerance="10"
     gridtolerance="10"
     guidetolerance="10"
     inkscape:pageopacity="0"
     inkscape:pageshadow="2"
     inkscape:window-width="1366"
     inkscape:window-height="710"
     id="namedview4"
     showgrid="false"
     inkscape:zoom="1.4456016"
     inkscape:cx="214.93807"
     inkscape:cy="161.5257"
     inkscape:window-x="0"
     inkscape:window-y="0"
     inkscape:window-maximized="1"
     inkscape:current-layer="g10" /><g
     id="g10"
     inkscape:groupmode="layer"
     inkscape:label="ICONOS"
     transform="matrix(1.25,0,0,-1.25,0,318.9)"><g
       id="g12"
       transform="translate(71.4874,36.1391)"
       style="fill:#feffff;fill-opacity:1"><path
         d="m 0,0 -31.619,0 0,181.994 31.559,0 0,-7 -24.559,0 L -24.619,7 0,7 0,0 Z"
         style="fill:#feffff;fill-opacity:1;fill-rule:nonzero;stroke:none"
         id="path14"
         inkscape:connector-curvature="0" /></g><g
       id="g16"
       transform="translate(315.3232,36.1391)"
       style="fill:#feffff;fill-opacity:1"><path
         d="m 0,0 -31.619,0 0,7 24.619,0 0,167.994 -24.558,0 0,7 31.558,0 L 0,0 Z"
         style="fill:#feffff;fill-opacity:1;fill-rule:nonzero;stroke:none"
         id="path18"
         inkscape:connector-curvature="0" /></g><g
       id="g20"
       style="fill:#ffffff;fill-opacity:1"><g
         id="g22"
         clip-path="url(#clipPath24)"
         style="fill:#ffffff;fill-opacity:1"><g
           id="g28"
           transform="translate(156.3833,206.5861)"
           style="fill:#ffffff;fill-opacity:1"><path
             d="m 0,0 c -0.435,0.15 -0.869,0.3 -1.304,0.451 -6.852,-5.996 -11.136,-13.522 -13.472,-23.042 4.636,0.726 8.596,1.206 12.474,2.058 0.91,0.2 2.171,1.639 2.2,2.543 C 0.095,-11.999 0,-5.998 0,0 m 55.892,-21.479 c -2.148,7.88 -5.675,15.23 -13.348,21.621 0,-3.053 0.033,-4.888 -0.007,-6.72 -0.108,-4.971 -2.273,-7.462 -6.421,-7.44 -3.98,0.021 -6.357,2.723 -6.478,7.582 -0.097,3.897 -0.028,7.799 -0.028,11.699 -0.003,10.674 -0.199,10.778 -10.969,10.454 -3.619,-0.109 -5.456,-1.757 -5.492,-5.206 -0.09,-8.81 -0.126,-17.624 0.114,-26.428 0.03,-1.099 1.795,-3.009 2.864,-3.089 13.043,-0.97 26.107,-1.669 39.765,-2.473 m -34.297,-9.923 c -8.924,-0.857 -16.842,-1.45 -24.695,-2.522 -1.45,-0.198 -3.51,-2.15 -3.808,-3.597 -2.608,-12.681 -0.954,-24.796 6.318,-35.707 11.579,-17.375 32.425,-18.101 45.02,-1.498 8.265,10.894 10.174,23.401 7.632,36.604 -0.273,1.421 -2.407,3.317 -3.89,3.533 -9.122,1.33 -18.305,2.24 -26.577,3.187 m -42.502,-9.915 c -4.016,-3.125 -7.429,-4.141 -10.716,-0.654 -2.413,2.56 -1.878,7.048 0.741,10.777 1.09,1.553 1.907,3.502 2.207,5.373 1.994,12.462 6.865,23.53 15.44,32.872 0.973,1.061 2.008,2.143 3.212,2.901 5.868,3.699 11.053,7.623 15.516,13.475 7.418,9.729 29.374,6.78 34.725,-3.862 1.688,-3.357 3.929,-5.247 7.024,-7.045 8.187,-4.756 13.502,-12.21 17.077,-20.75 2.212,-5.285 3.397,-10.996 5.165,-16.476 0.735,-2.279 1.457,-4.673 2.756,-6.638 4.059,-6.143 2.732,-10.407 -4.143,-12.967 -0.893,-0.332 -1.966,-1.762 -1.962,-2.68 0.05,-13.477 -3.705,-25.644 -11.884,-36.438 -0.668,-0.881 -0.777,-2.45 -0.634,-3.637 0.675,-5.592 1.665,-11.149 2.263,-16.747 0.322,-3.011 1.796,-3.954 4.621,-4.523 6.489,-1.307 13.175,-2.368 19.26,-4.821 22.717,-9.159 31.582,-27.659 32.054,-49.475 0.096,-4.425 -2.51,-7.249 -6.256,-7.38 -3.734,-0.13 -6.079,2.641 -6.663,7.011 -0.762,5.702 -1.172,11.623 -3.084,16.966 -5.422,15.152 -17.823,21.667 -32.694,24.44 -3.67,0.684 -7.464,0.761 -11.209,0.978 -4.685,0.27 -6.828,2.065 -7.558,6.703 -0.963,6.123 -1.871,12.254 -2.756,18.075 -6.532,-1.326 -12.796,-3.587 -19.061,-3.59 -6.163,-0.002 -12.327,2.287 -19.136,3.706 -0.705,-4.201 -1.565,-9.098 -2.301,-14.014 -0.09,-0.599 0.339,-1.421 0.773,-1.932 7.471,-8.806 14.982,-17.58 22.879,-26.823 2.575,2.709 4.795,5.094 7.068,7.425 3.677,3.771 7.184,4.252 10.263,1.464 2.941,-2.663 2.637,-6.353 -0.924,-10.253 -3.707,-4.059 -7.394,-8.139 -11.224,-12.08 -3.77,-3.88 -7.674,-3.757 -11.138,0.29 -8.558,9.999 -17.132,19.986 -25.53,30.119 -2.078,2.507 -4.041,3.361 -7.384,2.822 -20.919,-3.375 -34.535,-15.063 -38.476,-33.6 -0.687,-3.235 -0.953,-6.579 -1.172,-9.888 -0.339,-5.125 -2.649,-7.962 -6.68,-7.848 -3.865,0.109 -6.394,2.999 -6.301,7.807 0.44,22.768 10.57,41.516 33.003,51.004 5.797,2.452 12.095,3.848 18.277,5.206 3.062,0.673 4.551,1.934 4.86,4.951 0.236,2.297 0.497,4.622 1.081,6.847 1.585,6.041 0.647,11.077 -3.193,16.457 -5.717,8.008 -7.978,17.554 -8.178,27.462 -0.055,2.732 -0.008,5.466 -0.008,8.99"
             style="fill:#ffffff;fill-opacity:1;fill-rule:nonzero;stroke:none"
             id="path30"
             inkscape:connector-curvature="0" /></g></g></g></g></svg>