<?xml version="1.0" encoding="UTF-8" standalone="no"?>
<!-- Created with Inkscape (http://www.inkscape.org/) -->

<svg
   xmlns:dc="http://purl.org/dc/elements/1.1/"
   xmlns:cc="http://creativecommons.org/ns#"
   xmlns:rdf="http://www.w3.org/1999/02/22-rdf-syntax-ns#"
   xmlns:svg="http://www.w3.org/2000/svg"
   xmlns="http://www.w3.org/2000/svg"
   xmlns:sodipodi="http://sodipodi.sourceforge.net/DTD/sodipodi-0.dtd"
   xmlns:inkscape="http://www.inkscape.org/namespaces/inkscape"
   id="svg2"
   version="1.1"
   inkscape:version="0.91 r13725"
   xml:space="preserve"
   width="579.94122"
   height="287.29626"
   viewBox="0 0 579.94122 287.29626"
   sodipodi:docname="Logo_Hub_Minero_.ai"><metadata
     id="metadata8"><rdf:RDF><cc:Work
         rdf:about=""><dc:format>image/svg+xml</dc:format><dc:type
           rdf:resource="http://purl.org/dc/dcmitype/StillImage" /><dc:title></dc:title></cc:Work></rdf:RDF></metadata><defs
     id="defs6"><clipPath
       clipPathUnits="userSpaceOnUse"
       id="clipPath30"><path
         d="m 0,229.837 463.953,0 L 463.953,0 0,0 0,229.837 Z"
         id="path32"
         inkscape:connector-curvature="0" /></clipPath><clipPath
       clipPathUnits="userSpaceOnUse"
       id="clipPath116"><path
         d="m 18.416,115.347 c 0,-54.809 44.43,-99.239 99.238,-99.239 l 0,0 c 54.808,0 99.238,44.43 99.238,99.239 l 0,0 c 0,54.807 -44.43,99.237 -99.238,99.237 l 0,0 c -54.808,0 -99.238,-44.43 -99.238,-99.237"
         id="path118"
         inkscape:connector-curvature="0" /></clipPath><clipPath
       clipPathUnits="userSpaceOnUse"
       id="clipPath128"><path
         d="m 0,229.837 463.953,0 L 463.953,0 0,0 0,229.837 Z"
         id="path130"
         inkscape:connector-curvature="0" /></clipPath></defs><sodipodi:namedview
     pagecolor="#ffffff"
     bordercolor="#666666"
     borderopacity="1"
     objecttolerance="10"
     gridtolerance="10"
     guidetolerance="10"
     inkscape:pageopacity="0"
     inkscape:pageshadow="2"
     inkscape:window-width="1366"
     inkscape:window-height="710"
     id="namedview4"
     showgrid="false"
     inkscape:zoom="1.2814876"
     inkscape:cx="289.97061"
     inkscape:cy="143.64813"
     inkscape:window-x="0"
     inkscape:window-y="0"
     inkscape:window-maximized="1"
     inkscape:current-layer="g10" /><g
     id="g10"
     inkscape:groupmode="layer"
     inkscape:label="Logo_Hub_Minero_"
     transform="matrix(1.25,0,0,-1.25,0,287.29625)"><g
       id="g12"
       transform="translate(229.542,96.2796)"><path
         d="m 0,0 0,27.936 9.036,0 6.699,-21.237 6.896,21.237 8.841,0 0,-27.936 -5.344,0 0,23.279 L 18.211,0 12.946,0 5.206,23.279 5.206,0 0,0 Z"
         style="fill:#006b48;fill-opacity:1;fill-rule:nonzero;stroke:none"
         id="path14"
         inkscape:connector-curvature="0" /></g><path
       d="m 267.122,124.215 5.678,0 0,-27.936 -5.678,0 0,27.936 z"
       style="fill:#006b48;fill-opacity:1;fill-rule:nonzero;stroke:none"
       id="path16"
       inkscape:connector-curvature="0" /><g
       id="g18"
       transform="translate(278.5762,96.2796)"><path
         d="m 0,0 0,27.936 6.797,0 11.041,-21.414 0,21.414 5.068,0 L 22.906,0 16.069,0 5.029,21.413 5.029,0 0,0 Z"
         style="fill:#006b48;fill-opacity:1;fill-rule:nonzero;stroke:none"
         id="path20"
         inkscape:connector-curvature="0" /></g><g
       id="g22"
       transform="translate(307.9062,96.2796)"><path
         d="m 0,0 0,27.798 16.521,0 0,-4.656 -10.844,0 0,-6.621 9.921,0 0,-4.557 -9.921,0 0,-7.308 10.942,0 L 16.619,0 0,0 Z"
         style="fill:#006b48;fill-opacity:1;fill-rule:nonzero;stroke:none"
         id="path24"
         inkscape:connector-curvature="0" /></g><g
       id="g26"><g
         id="g28"
         clip-path="url(#clipPath30)"><g
           id="g34"
           transform="translate(335.7041,119.8343)"><path
             d="m 0,0 0,-7.583 2.476,0 c 1.794,0 3.106,0.38 3.938,1.14 0.831,0.758 1.247,1.734 1.247,2.926 0,1.022 -0.37,1.864 -1.109,2.525 C 5.812,-0.331 4.715,0 3.261,0 L 0,0 Z m -5.678,4.381 7.956,0 C 4.57,4.381 6.09,4.342 6.836,4.263 7.949,4.132 8.873,3.89 9.606,3.536 10.34,3.183 11.014,2.678 11.63,2.023 c 0.615,-0.655 1.083,-1.405 1.404,-2.25 0.321,-0.844 0.482,-1.745 0.482,-2.701 0,-1.087 -0.187,-2.04 -0.56,-2.858 C 12.583,-6.604 12.137,-7.272 11.62,-7.789 11.103,-8.307 10.556,-8.706 9.979,-8.988 9.403,-9.27 8.683,-9.482 7.818,-9.626 c 0.498,-0.026 1.002,-0.266 1.513,-0.718 0.511,-0.451 0.956,-1.116 1.336,-1.993 l 0.648,-1.493 4.008,-9.725 -6.286,0 -3.025,7.878 c -0.355,0.916 -0.616,1.532 -0.786,1.847 -0.289,0.55 -0.574,0.956 -0.855,1.218 -0.282,0.261 -0.593,0.445 -0.933,0.549 -0.524,0.145 -1.271,0.216 -2.24,0.216 -0.341,0 -0.74,-0.019 -1.198,-0.058 l 0,-11.65 -5.678,0 0,27.936 z"
             style="fill:#006b48;fill-opacity:1;fill-rule:nonzero;stroke:none"
             id="path36"
             inkscape:connector-curvature="0" /></g><g
           id="g38"
           transform="translate(362.6562,107.1829)"><path
             d="M 0,0 8.113,0 4.066,11.453 0,0 Z m -9.96,-10.903 10.981,27.935 6.346,0 11.041,-27.935 -6.247,0 -2.338,6.384 -11.532,0 -2.377,-6.384 -5.874,0 z"
             style="fill:#006b48;fill-opacity:1;fill-rule:nonzero;stroke:none"
             id="path40"
             inkscape:connector-curvature="0" /></g><g
           id="g42"
           transform="translate(235.0557,84.6487)"><path
             d="m 0,0 0,-18.711 c 0.482,-0.051 0.959,-0.076 1.43,-0.076 1.488,0 2.861,0.159 4.119,0.477 0.928,0.229 1.73,0.553 2.404,0.973 0.674,0.419 1.322,1.004 1.945,1.754 0.623,0.751 1.12,1.666 1.487,2.747 0.369,1.08 0.554,2.25 0.554,3.51 0,1.207 -0.166,2.323 -0.496,3.347 -0.332,1.023 -0.82,1.945 -1.468,2.765 -0.649,0.82 -1.373,1.456 -2.174,1.907 -0.803,0.452 -1.772,0.786 -2.91,1.002 C 3.754,-0.089 2.123,0.013 0,0 m -5.475,-22.964 0,27.122 6.2,0 c 2.834,0 5.086,-0.143 6.752,-0.429 1.664,-0.287 3.113,-0.773 4.347,-1.459 1.233,-0.687 2.315,-1.609 3.242,-2.766 0.928,-1.157 1.596,-2.426 2.004,-3.805 0.407,-1.38 0.61,-2.966 0.61,-4.759 0,-1.869 -0.217,-3.557 -0.649,-5.063 -0.431,-1.507 -1.088,-2.84 -1.965,-3.996 -0.877,-1.157 -1.875,-2.073 -2.994,-2.747 -1.119,-0.674 -2.67,-1.221 -4.654,-1.64 -1.398,-0.306 -3.242,-0.458 -5.531,-0.458 l -7.362,0 z"
             style="fill:#006b48;fill-opacity:1;fill-rule:nonzero;stroke:none"
             id="path44"
             inkscape:connector-curvature="0" /></g><g
           id="g46"
           transform="translate(261.1855,73.7581)"><path
             d="M 0,0 8.812,0 C 8.735,1.666 8.309,2.911 7.533,3.738 6.758,4.564 5.728,4.979 4.443,4.979 3.248,4.979 2.313,4.615 1.64,3.891 0.687,2.899 0.14,1.603 0,0 m 13.656,-3.624 -13.618,0 c 0.038,-0.903 0.315,-1.752 0.829,-2.546 0.516,-0.795 1.18,-1.39 1.993,-1.783 0.814,-0.395 1.813,-0.592 2.995,-0.592 1.068,0 2.124,0.149 3.166,0.448 1.042,0.299 2.149,0.78 3.319,1.441 l 0.057,-4.292 c -0.458,-0.343 -1.371,-0.694 -2.737,-1.049 -1.367,-0.356 -2.768,-0.534 -4.206,-0.534 -2.136,0 -3.995,0.397 -5.578,1.192 -1.583,0.795 -2.795,2.019 -3.634,3.672 -0.839,1.652 -1.259,3.56 -1.259,5.722 0,2.135 0.404,4.024 1.211,5.664 0.808,1.64 1.981,2.877 3.52,3.71 1.538,0.833 3.235,1.249 5.092,1.249 1.984,0 3.681,-0.492 5.092,-1.478 1.412,-0.985 2.401,-2.324 2.966,-4.014 0.566,-1.692 0.849,-3.606 0.849,-5.742 0,-0.242 -0.019,-0.597 -0.057,-1.068"
             style="fill:#006b48;fill-opacity:1;fill-rule:nonzero;stroke:none"
             id="path48"
             inkscape:connector-curvature="0" /></g><path
           d="m 279.209,90.981 5.245,0 0,-29.296 -5.245,0 0,29.296 z"
           style="fill:#006b48;fill-opacity:1;fill-rule:nonzero;stroke:none"
           id="path50"
           inkscape:connector-curvature="0" /><g
           id="g52"
           transform="translate(306.293,84.6487)"><path
             d="m 0,0 0,-8.449 c 0.572,-0.013 0.953,-0.02 1.145,-0.02 1.334,0 2.351,0.109 3.051,0.324 0.432,0.154 0.874,0.392 1.325,0.716 0.452,0.325 0.821,0.75 1.107,1.278 0.286,0.528 0.429,1.198 0.429,2.012 0,1.246 -0.461,2.26 -1.383,3.042 C 4.752,-0.314 3.268,0.076 1.221,0.076 0.877,0.076 0.47,0.051 0,0 m -5.513,-22.964 0,27.122 5.971,0 c 2.326,0 3.858,-0.045 4.596,-0.134 1.309,-0.177 2.403,-0.476 3.281,-0.896 0.877,-0.42 1.656,-0.995 2.336,-1.726 0.681,-0.731 1.198,-1.567 1.555,-2.508 0.355,-0.941 0.534,-1.958 0.534,-3.052 0,-1.221 -0.217,-2.333 -0.649,-3.338 -0.432,-1.004 -1.002,-1.872 -1.707,-2.603 -0.706,-0.731 -1.485,-1.285 -2.337,-1.66 -0.851,-0.375 -1.856,-0.651 -3.013,-0.829 -0.7,-0.102 -1.615,-0.141 -2.746,-0.114 L 0,-12.664 l 0,-10.3 -5.513,0 z"
             style="fill:#006b48;fill-opacity:1;fill-rule:nonzero;stroke:none"
             id="path54"
             inkscape:connector-curvature="0" /></g><g
           id="g56"
           transform="translate(325.5947,73.7581)"><path
             d="M 0,0 8.812,0 C 8.735,1.666 8.309,2.911 7.533,3.738 6.758,4.564 5.728,4.979 4.443,4.979 3.248,4.979 2.313,4.615 1.64,3.891 0.687,2.899 0.14,1.603 0,0 m 13.656,-3.624 -13.618,0 c 0.038,-0.903 0.315,-1.752 0.829,-2.546 0.516,-0.795 1.18,-1.39 1.993,-1.783 0.814,-0.395 1.813,-0.592 2.995,-0.592 1.068,0 2.124,0.149 3.166,0.448 1.042,0.299 2.149,0.78 3.319,1.441 l 0.057,-4.292 c -0.458,-0.343 -1.371,-0.694 -2.737,-1.049 -1.367,-0.356 -2.768,-0.534 -4.206,-0.534 -2.136,0 -3.995,0.397 -5.578,1.192 -1.583,0.795 -2.795,2.019 -3.634,3.672 -0.839,1.652 -1.259,3.56 -1.259,5.722 0,2.135 0.404,4.024 1.211,5.664 0.808,1.64 1.981,2.877 3.52,3.71 1.538,0.833 3.235,1.249 5.092,1.249 1.984,0 3.681,-0.492 5.092,-1.478 1.412,-0.985 2.401,-2.324 2.966,-4.014 0.566,-1.692 0.849,-3.606 0.849,-5.742 0,-0.242 -0.019,-0.597 -0.057,-1.068"
             style="fill:#006b48;fill-opacity:1;fill-rule:nonzero;stroke:none"
             id="path58"
             inkscape:connector-curvature="0" /></g><g
           id="g60"
           transform="translate(343.3516,81.8069)"><path
             d="m 0,0 4.787,0 0.096,-5.111 c 0.343,1.627 1.049,2.915 2.116,3.862 1.068,0.947 2.282,1.421 3.644,1.421 0.496,0 0.972,-0.045 1.43,-0.134 l 0,-4.921 c -0.394,0.216 -0.928,0.324 -1.602,0.324 -0.942,0 -1.733,-0.184 -2.375,-0.552 C 7.454,-5.48 6.93,-5.974 6.522,-6.59 6.115,-7.207 5.829,-7.902 5.664,-8.679 5.499,-9.454 5.416,-10.509 5.416,-11.845 l 0,-8.277 -5.245,0 0,14.018 L 0.038,-0.553 0,0 Z"
             style="fill:#006b48;fill-opacity:1;fill-rule:nonzero;stroke:none"
             id="path62"
             inkscape:connector-curvature="0" /></g><g
           id="g64"
           transform="translate(373.543,90.2562)"><path
             d="m 0,0 -5.512,-5.646 -3.07,0 L -5.321,0 0,0 Z m -14.819,-8.449 5.245,0 0,-9.9 0.038,-1.773 c 0.038,-1.386 0.266,-2.391 0.686,-3.014 0.662,-0.966 1.609,-1.449 2.842,-1.449 0.725,0 1.38,0.181 1.965,0.544 0.585,0.362 1.052,0.854 1.401,1.478 0.35,0.623 0.608,1.436 0.773,2.441 0.076,0.471 0.115,1.271 0.115,2.403 l 0,9.27 5.245,0 0,-12.302 0.133,-6.638 0.134,-1.182 -5.055,0 -0.133,3.07 c -0.598,-1.004 -1.46,-1.814 -2.585,-2.432 -1.125,-0.616 -2.431,-0.924 -3.919,-0.924 -1.055,0 -2.003,0.149 -2.842,0.448 -0.839,0.299 -1.523,0.689 -2.05,1.173 -0.528,0.483 -0.929,1.01 -1.202,1.583 -0.274,0.572 -0.487,1.436 -0.639,2.593 -0.102,0.776 -0.152,2.251 -0.152,4.426 l 0,10.185 z"
             style="fill:#006b48;fill-opacity:1;fill-rule:nonzero;stroke:none"
             id="path66"
             inkscape:connector-curvature="0" /></g><g
           id="g68"
           transform="translate(416.4541,169.0644)"><path
             d="m 0,0 -5.637,-5.773 -3.14,0 L -5.441,0 0,0 Z"
             style="fill:#006b48;fill-opacity:1;fill-rule:nonzero;stroke:none"
             id="path70"
             inkscape:connector-curvature="0" /></g><path
           d="m 229.665,161.053 5.372,0 0,-28.057 -5.372,0 0,28.057 z"
           style="fill:#006b48;fill-opacity:1;fill-rule:nonzero;stroke:none"
           id="path72"
           inkscape:connector-curvature="0" /><g
           id="g74"
           transform="translate(238.5375,161.0533)"><path
             d="m 0,0 5.671,0 11.94,-20.595 0,20.595 5.073,0 0,-28.057 -5.671,0 -11.641,20.297 0,-20.297 -5.372,0 L 0,0 Z"
             style="fill:#006b48;fill-opacity:1;fill-rule:nonzero;stroke:none"
             id="path76"
             inkscape:connector-curvature="0" /></g><g
           id="g78"
           transform="translate(255.9417,161.0533)"><path
             d="m 0,0 5.671,0 11.94,-20.595 0,20.595 5.073,0 0,-28.057 -5.671,0 -11.641,20.297 0,-20.297 -5.372,0 L 0,0 Z"
             style="fill:#006b48;fill-opacity:1;fill-rule:nonzero;stroke:none"
             id="path80"
             inkscape:connector-curvature="0" /></g><g
           id="g82"
           transform="translate(286.4468,146.4275)"><path
             d="m 0,0 c 0.087,-2.027 0.6,-3.715 1.539,-5.064 0.939,-1.35 2.08,-2.336 3.423,-2.957 1.344,-0.622 2.674,-0.933 3.993,-0.933 1.231,0 2.424,0.264 3.581,0.793 1.157,0.528 2.189,1.259 3.097,2.192 0.908,0.932 1.613,1.964 2.118,3.097 0.503,1.131 0.755,2.288 0.755,3.469 0,1.518 -0.358,2.969 -1.073,4.356 C 16.718,6.34 15.68,7.481 14.318,8.376 12.956,9.272 11.367,9.763 9.551,9.85 8.408,9.85 7.297,9.688 6.221,9.365 5.146,9.041 4.154,8.509 3.246,7.77 2.338,7.03 1.589,6.01 0.998,4.71 0.407,3.411 0.075,1.84 0,0 m -5.372,0 c 0.074,2.686 0.59,5.003 1.548,6.949 0.957,1.947 2.17,3.498 3.638,4.655 1.467,1.156 3.056,1.999 4.766,2.527 1.709,0.529 3.367,0.793 4.971,0.793 2.176,0 4.182,-0.435 6.017,-1.306 1.834,-0.87 3.404,-2.018 4.71,-3.441 1.306,-1.425 2.297,-2.948 2.975,-4.571 0.678,-1.623 1.017,-3.18 1.017,-4.673 0,-0.386 -0.031,-0.796 -0.093,-1.231 -0.174,-1.529 -0.551,-3.075 -1.128,-4.636 -0.579,-1.561 -1.447,-3.032 -2.603,-4.412 -1.157,-1.38 -2.69,-2.506 -4.598,-3.376 -1.909,-0.871 -4.207,-1.306 -6.893,-1.306 -2.463,0 -4.618,0.492 -6.465,1.473 -1.846,0.983 -3.336,2.208 -4.467,3.676 -1.132,1.467 -1.981,3.006 -2.546,4.617 -0.567,1.61 -0.849,3.031 -0.849,4.262"
             style="fill:#006b48;fill-opacity:1;fill-rule:nonzero;stroke:none"
             id="path84"
             inkscape:connector-curvature="0" /></g><g
           id="g86"
           transform="translate(321.2876,132.9964)"><path
             d="m 0,0 -11.342,28.057 5.671,0 7.76,-21.491 7.761,21.491 5.074,0 L 4.179,0 0,0 Z"
             style="fill:#006b48;fill-opacity:1;fill-rule:nonzero;stroke:none"
             id="path88"
             inkscape:connector-curvature="0" /></g><g
           id="g90"
           transform="translate(345.7882,161.0533)"><path
             d="m 0,0 11.342,-28.057 -5.671,0 -7.76,21.491 -7.761,-21.491 -5.074,0 L -4.179,0 0,0 Z"
             style="fill:#006b48;fill-opacity:1;fill-rule:nonzero;stroke:none"
             id="path92"
             inkscape:connector-curvature="0" /></g><g
           id="g94"
           transform="translate(356.9426,147.6221)"><path
             d="m 0,0 c 0.075,1.181 0.439,2.558 1.092,4.132 0.652,1.573 1.579,3.093 2.779,4.56 1.2,1.468 2.674,2.674 4.422,3.62 1.746,0.945 3.714,1.418 5.904,1.418 l 0.429,0 c 1.653,0 3.385,-0.355 5.195,-1.064 1.81,-0.709 3.442,-1.725 4.897,-3.05 1.455,-1.324 2.469,-2.839 3.041,-4.542 l -5.97,0 C 20.694,6.268 19.541,7.151 18.328,7.723 17.116,8.295 15.875,8.581 14.607,8.581 13.015,8.581 11.501,8.143 10.064,7.266 8.628,6.389 7.487,5.241 6.642,3.824 5.796,2.406 5.373,0.932 5.373,-0.597 c 0,-1.742 0.504,-3.349 1.511,-4.822 1.007,-1.474 2.297,-2.634 3.871,-3.48 1.573,-0.846 3.155,-1.268 4.747,-1.268 1.182,0 2.261,0.242 3.237,0.728 0.976,0.484 1.794,1.243 2.453,2.275 l 6.268,0 c -0.684,-1.865 -1.775,-3.411 -3.273,-4.635 -1.499,-1.226 -3.129,-2.109 -4.888,-2.649 -1.76,-0.541 -3.356,-0.812 -4.785,-0.812 -0.199,0 -0.461,0.013 -0.783,0.037 -1.879,0.15 -3.657,0.604 -5.336,1.362 -1.679,0.758 -3.137,1.775 -4.375,3.051 C 2.783,-9.537 1.803,-7.979 1.082,-6.138 0.361,-4.298 0,-2.252 0,0"
             style="fill:#006b48;fill-opacity:1;fill-rule:nonzero;stroke:none"
             id="path96"
             inkscape:connector-curvature="0" /></g><path
           d="m 386.111,161.053 5.372,0 0,-28.057 -5.372,0 0,28.057 z"
           style="fill:#006b48;fill-opacity:1;fill-rule:nonzero;stroke:none"
           id="path98"
           inkscape:connector-curvature="0" /><g
           id="g100"
           transform="translate(399.1638,146.4275)"><path
             d="m 0,0 c 0.087,-2.027 0.6,-3.715 1.539,-5.064 0.939,-1.35 2.08,-2.336 3.423,-2.957 1.344,-0.622 2.674,-0.933 3.993,-0.933 1.231,0 2.424,0.264 3.581,0.793 1.157,0.528 2.189,1.259 3.097,2.192 0.908,0.932 1.613,1.964 2.118,3.097 0.503,1.131 0.755,2.288 0.755,3.469 0,1.518 -0.358,2.969 -1.073,4.356 C 16.718,6.34 15.679,7.481 14.318,8.376 12.956,9.272 11.367,9.763 9.551,9.85 8.408,9.85 7.297,9.688 6.221,9.365 5.146,9.041 4.154,8.509 3.246,7.77 2.338,7.03 1.589,6.01 0.998,4.71 0.407,3.411 0.075,1.84 0,0 m -5.372,0 c 0.074,2.686 0.59,5.003 1.548,6.949 0.957,1.947 2.17,3.498 3.638,4.655 1.467,1.156 3.056,1.999 4.766,2.527 1.709,0.529 3.367,0.793 4.971,0.793 2.176,0 4.182,-0.435 6.017,-1.306 1.834,-0.87 3.404,-2.018 4.71,-3.441 1.306,-1.425 2.297,-2.948 2.975,-4.571 0.678,-1.623 1.017,-3.18 1.017,-4.673 0,-0.386 -0.031,-0.796 -0.093,-1.231 -0.174,-1.529 -0.551,-3.075 -1.128,-4.636 -0.579,-1.561 -1.447,-3.032 -2.603,-4.412 -1.157,-1.38 -2.69,-2.506 -4.598,-3.376 -1.909,-0.871 -4.207,-1.306 -6.893,-1.306 -2.463,0 -4.618,0.492 -6.465,1.473 -1.846,0.983 -3.336,2.208 -4.467,3.676 -1.132,1.467 -1.981,3.006 -2.546,4.617 -0.567,1.61 -0.849,3.031 -0.849,4.262"
             style="fill:#006b48;fill-opacity:1;fill-rule:nonzero;stroke:none"
             id="path102"
             inkscape:connector-curvature="0" /></g><g
           id="g104"
           transform="translate(425.05,161.0533)"><path
             d="m 0,0 5.671,0 11.94,-20.595 0,20.595 5.073,0 0,-28.057 -5.671,0 -11.641,20.297 0,-20.297 -5.372,0 L 0,0 Z"
             style="fill:#006b48;fill-opacity:1;fill-rule:nonzero;stroke:none"
             id="path106"
             inkscape:connector-curvature="0" /></g><g
           id="g108"
           transform="translate(216.8921,115.3463)"><path
             d="m 0,0 c 0,-54.808 -44.43,-99.238 -99.238,-99.238 -54.808,0 -99.238,44.43 -99.238,99.238 0,54.808 44.43,99.238 99.238,99.238 C -44.43,99.238 0,54.808 0,0"
             style="fill:#f7b400;fill-opacity:1;fill-rule:nonzero;stroke:none"
             id="path110"
             inkscape:connector-curvature="0" /></g></g></g><g
       id="g112"><g
         id="g114"
         clip-path="url(#clipPath116)"><g
           id="g120"
           transform="translate(50.5659,167.2782)"><path
             d="m 0,0 c 16.589,2.828 41.848,-1.679 49.414,-2.128 17.111,-1.015 34.197,-2.437 51.24,-4.263 8.292,-0.888 16.573,-1.872 24.841,-2.951 6.412,-0.837 14.966,-0.362 20.469,-4.184 7.109,-4.925 5.408,-15.304 3.353,-22.24 -2.911,-10.863 -4.609,-22.118 -6.777,-33.147 -2.148,-10.929 -2.005,-22.279 -5.715,-32.902 -2.67,-7.646 -8.373,-11.828 -16.006,-13.799 -5.806,-1.5 -8.711,0.381 -7.387,-5.484 1.289,-5.711 3.775,-13.894 5.049,-23.454 -10.944,8.755 -19.309,21.804 -32.814,26.713 -12.599,4.58 -26.563,3.442 -39.597,1.771 -15.803,-2.025 -35.89,0.497 -40.426,18.721 C 0.483,-76.608 -4.679,-55.869 -9.84,-35.13 -13.401,-20.824 -20.149,-3.435 0,0"
             style="fill:#ffffff;fill-opacity:1;fill-rule:nonzero;stroke:none"
             id="path122"
             inkscape:connector-curvature="0" /></g></g></g><g
       id="g124"><g
         id="g126"
         clip-path="url(#clipPath128)"><g
           id="g132"
           transform="translate(94.6909,114.8226)"><path
             d="m 0,0 c 3.679,-3.954 5.519,-8.566 5.519,-13.837 l 0,-22.734 -8.731,0 0,22.734 c 0,2.965 -0.934,5.408 -2.801,7.33 -1.977,2.087 -4.311,3.13 -7.001,3.13 -2.8,0 -5.134,-0.988 -7.002,-2.965 -1.921,-2.087 -2.882,-4.585 -2.882,-7.495 l 0,-22.734 -8.649,0 0,62.105 8.649,0 0,-22.898 c 2.91,1.977 6.205,2.965 9.884,2.965 C -7.962,5.601 -3.625,3.734 0,0"
             style="fill:#f7b400;fill-opacity:1;fill-rule:nonzero;stroke:none"
             id="path134"
             inkscape:connector-curvature="0" /></g><g
           id="g136"
           transform="translate(135.1323,83.1937)"><path
             d="m 0,0 c -1.812,-2.086 -3.857,-3.583 -6.136,-4.489 -2.279,-0.906 -4.572,-1.359 -6.878,-1.359 -5.272,0 -9.61,1.894 -13.014,5.683 -3.679,3.899 -5.519,8.649 -5.519,14.25 l 0,22.239 8.649,0 0,-22.239 c 0,-3.075 0.961,-5.601 2.883,-7.578 1.922,-2.087 4.255,-3.13 7.001,-3.13 2.691,0 5.024,1.043 7.001,3.13 1.922,1.977 2.855,4.503 2.801,7.578 l 0,22.239 8.731,0 0,-22.239 C 5.519,8.594 3.679,3.899 0,0"
             style="fill:#f7b400;fill-opacity:1;fill-rule:nonzero;stroke:none"
             id="path138"
             inkscape:connector-curvature="0" /></g><g
           id="g140"
           transform="translate(174.2573,107.9036)"><path
             d="m 0,0 c -2.416,2.526 -5.327,3.789 -8.731,3.789 -3.35,0 -6.205,-1.263 -8.566,-3.789 -2.416,-2.416 -3.652,-5.436 -3.707,-9.06 0,-3.514 1.236,-6.48 3.707,-8.896 2.361,-2.525 5.216,-3.789 8.566,-3.789 3.404,0 6.315,1.264 8.731,3.789 2.416,2.416 3.597,5.382 3.542,8.896 C 3.597,-5.546 2.416,-2.526 0,0 m -21.004,-26.439 0,-3.213 -8.648,0 0,62.105 8.648,0 0,-24.134 c 3.515,2.801 7.606,4.201 12.273,4.201 5.711,0 10.626,-2.086 14.744,-6.26 4.063,-4.173 6.095,-9.28 6.095,-15.32 0,-6.041 -2.032,-11.12 -6.095,-15.238 -4.118,-4.173 -9.033,-6.26 -14.744,-6.26 -4.667,0 -8.758,1.373 -12.273,4.119"
             style="fill:#f7b400;fill-opacity:1;fill-rule:nonzero;stroke:none"
             id="path142"
             inkscape:connector-curvature="0" /></g></g></g></g></svg>